<?xml version="1.0" encoding="utf-8"?>
<!-- Generator: Adobe Illustrator 16.2.0, SVG Export Plug-In . SVG Version: 6.00 Build 0)  -->
<!DOCTYPE svg PUBLIC "-//W3C//DTD SVG 1.1//EN" "http://www.w3.org/Graphics/SVG/1.1/DTD/svg11.dtd">
<svg version="1.1" id="Layer_1" xmlns="http://www.w3.org/2000/svg" xmlns:xlink="http://www.w3.org/1999/xlink" x="0px" y="0px"
	 width="291.413px" height="500px" viewBox="0 0 582.826 1000" enable-background="new 0 0 582.826 1000" xml:space="preserve">
<g>
	<path fill="#74BBB6" d="M389.246,544.439c9.489,14.486,18.081,27.25,25.817,38.637c-2.545-3.92-4.942-7.879-7.626-11.709
		C401.457,562.381,395.334,553.41,389.246,544.439z"/>
	
		<radialGradient id="SVGID_1_" cx="406.626" cy="238.2334" r="158.6165" gradientTransform="matrix(0.9922 -0.1243 0.1243 0.9922 -59.6377 25.7349)" gradientUnits="userSpaceOnUse">
		<stop  offset="0" style="stop-color:#66A6B5"/>
		<stop  offset="0.351" style="stop-color:#64A4B3"/>
		<stop  offset="0.5838" style="stop-color:#609FB1"/>
		<stop  offset="0.7821" style="stop-color:#5998AE"/>
		<stop  offset="0.9603" style="stop-color:#508EA9"/>
		<stop  offset="1" style="stop-color:#4E8BA8"/>
	</radialGradient>
	<path fill="url(#SVGID_1_)" d="M325.758,43.513c0,0-106.024,49.861-95.103,180.129c1.397-7.215,3.33-14.449,6.373-21.395
		c13.286-28.61,49.342-42.933,79.743-40.625c51.708,3.957,90.95,49.541,87.013,101.175l-4.047,54.356l-0.644,8.289
		c-0.753,9.74,3.437,18.298,10.097,24.261c8.524,12.425,21.844,21.395,37.92,22.646l15.504,1.093
		c16.329,1.199,30.725-5.71,41.108-16.632c7.413-4.924,12.711-12.676,13.465-22.487l0.466-8.183l4.261-54.392l0.536-6.355
		c0.178-2.363-0.788-4.423-0.824-6.677C522.986,147.945,437.408,52.053,325.758,43.513z"/>
	
		<radialGradient id="SVGID_2_" cx="174.1387" cy="781.3555" r="163.5174" gradientTransform="matrix(0.9922 -0.1243 0.1243 0.9922 -59.6377 25.7349)" gradientUnits="userSpaceOnUse">
		<stop  offset="0" style="stop-color:#66A6B5"/>
		<stop  offset="0.351" style="stop-color:#64A4B3"/>
		<stop  offset="0.5838" style="stop-color:#609FB1"/>
		<stop  offset="0.7821" style="stop-color:#5998AE"/>
		<stop  offset="0.9603" style="stop-color:#508EA9"/>
		<stop  offset="1" style="stop-color:#4E8BA8"/>
	</radialGradient>
	<path fill="url(#SVGID_2_)" d="M349.357,791.727c-13.213,28.592-52.994,49.199-83.432,46.889
		c-51.635-3.973-87.228-55.77-83.253-107.422c1.611-20.803,6.159-48.822,0.681-71.471c-1.576-25.137-20.696-46.299-46.621-48.16
		l-15.29-1.184c-28.395-2.111-53.139,19.104-55.287,47.447l-0.716,7.932l-3.403,47.875c-0.036,0.266-0.071,0.465-0.071,0.732
		l-0.751,9.811l-0.286,4.297c0,0.162,0.036,0.287,0,0.43c-0.323,4.207-0.574,9.688-0.574,11.225c0,3.906,0.787,7.701,0.966,11.479
		c0.286,8.074,0.68,16.023,1.862,23.811c0.825,5.426,2.112,10.742,3.402,16.133c1.503,6.588,3.115,13.178,5.263,19.551
		c2.722,8.234,6.123,16.148,9.632,23.92c1.004,2.076,1.935,4.297,3.079,6.336c31.727,63.523,92.062,110.039,164,114.334
		c0,0,118.199-55.109,107.205-185.355C354.368,777.602,352.546,784.762,349.357,791.727z"/>
	<g>
		
			<radialGradient id="SVGID_3_" cx="144.4253" cy="617.5205" r="4.4659" gradientTransform="matrix(0.9922 -0.1243 0.1243 0.9922 -59.6377 25.7349)" gradientUnits="userSpaceOnUse">
			<stop  offset="0" style="stop-color:#66A6B5"/>
			<stop  offset="0.4215" style="stop-color:#67A8B7"/>
			<stop  offset="0.701" style="stop-color:#6BAEBD"/>
			<stop  offset="0.9385" style="stop-color:#71B9C9"/>
			<stop  offset="1" style="stop-color:#74BECD"/>
		</radialGradient>
		<path fill="url(#SVGID_3_)" d="M155.351,616.719c3.796,1.969,6.983,4.762,10.136,7.537
			C162.263,621.533,159.184,618.65,155.351,616.719z"/>
		
			<radialGradient id="SVGID_4_" cx="39.3008" cy="787.0684" r="43.7762" gradientTransform="matrix(0.9922 -0.1243 0.1243 0.9922 -59.6377 25.7349)" gradientUnits="userSpaceOnUse">
			<stop  offset="0" style="stop-color:#66A6B5"/>
			<stop  offset="0.4215" style="stop-color:#67A8B7"/>
			<stop  offset="0.701" style="stop-color:#6BAEBD"/>
			<stop  offset="0.9385" style="stop-color:#71B9C9"/>
			<stop  offset="1" style="stop-color:#74BECD"/>
		</radialGradient>
		<path fill="url(#SVGID_4_)" d="M84.56,841.355c-1.144-2.039-2.075-4.26-3.079-6.336c-3.509-7.771-6.91-15.686-9.632-23.92
			c-2.148-6.373-3.76-12.963-5.263-19.551c-1.29-5.391-2.578-10.707-3.402-16.133c-1.182-7.787-1.576-15.736-1.862-23.811
			c-0.179-2.975-0.572-6.051-0.787-9.133c-0.395,43.295,12.641,84.115,35.163,118.381C91.793,854.533,87.926,848.086,84.56,841.355z
			"/>
		
			<radialGradient id="SVGID_5_" cx="32.168" cy="712.8975" r="0.4257" gradientTransform="matrix(0.9922 -0.1243 0.1243 0.9922 -59.6377 25.7349)" gradientUnits="userSpaceOnUse">
			<stop  offset="0" style="stop-color:#66A6B5"/>
			<stop  offset="0.4215" style="stop-color:#67A8B7"/>
			<stop  offset="0.701" style="stop-color:#6BAEBD"/>
			<stop  offset="0.9385" style="stop-color:#71B9C9"/>
			<stop  offset="1" style="stop-color:#74BECD"/>
		</radialGradient>
		<path fill="url(#SVGID_5_)" d="M60.928,728.473c0,0.395,0,0.805-0.073,1.201c0-0.219,0.073-0.502,0.073-0.771
			C60.964,728.76,60.928,728.635,60.928,728.473z"/>
		
			<radialGradient id="SVGID_6_" cx="157.498" cy="642.3486" r="12.4475" gradientTransform="matrix(0.9922 -0.1243 0.1243 0.9922 -59.6377 25.7349)" gradientUnits="userSpaceOnUse">
			<stop  offset="0" style="stop-color:#66A6B5"/>
			<stop  offset="0.4215" style="stop-color:#67A8B7"/>
			<stop  offset="0.701" style="stop-color:#6BAEBD"/>
			<stop  offset="0.9385" style="stop-color:#71B9C9"/>
			<stop  offset="1" style="stop-color:#74BECD"/>
		</radialGradient>
		<path fill="url(#SVGID_6_)" d="M183.354,659.67c-0.825-12.443-5.516-23.758-13.857-32.334
			C177.481,635.982,182.528,647.297,183.354,659.67z"/>
		
			<radialGradient id="SVGID_7_" cx="53.5757" cy="854.5742" r="0.5113" gradientTransform="matrix(0.9922 -0.1243 0.1243 0.9922 -59.6377 25.7349)" gradientUnits="userSpaceOnUse">
			<stop  offset="0" style="stop-color:#66A6B5"/>
			<stop  offset="0.4215" style="stop-color:#67A8B7"/>
			<stop  offset="0.701" style="stop-color:#6BAEBD"/>
			<stop  offset="0.9385" style="stop-color:#71B9C9"/>
			<stop  offset="1" style="stop-color:#74BECD"/>
		</radialGradient>
		<path fill="url(#SVGID_7_)" d="M99.314,866.402c0.213,0.43,0.607,0.77,0.858,1.164C99.922,867.172,99.527,866.832,99.314,866.402z
			"/>
		
			<radialGradient id="SVGID_8_" cx="229.4219" cy="847.6533" r="5.2608" gradientTransform="matrix(0.9922 -0.1243 0.1243 0.9922 -59.6377 25.7349)" gradientUnits="userSpaceOnUse">
			<stop  offset="0" style="stop-color:#66A6B5"/>
			<stop  offset="0.4215" style="stop-color:#67A8B7"/>
			<stop  offset="0.701" style="stop-color:#6BAEBD"/>
			<stop  offset="0.9385" style="stop-color:#71B9C9"/>
			<stop  offset="1" style="stop-color:#74BECD"/>
		</radialGradient>
		<path fill="url(#SVGID_8_)" d="M265.926,838.615c4.727,0.342,9.74-0.053,14.862-0.713
			C275.449,838.598,270.365,838.939,265.926,838.615z"/>
		
			<radialGradient id="SVGID_9_" cx="288.2012" cy="514.0322" r="339.229" gradientTransform="matrix(0.9922 -0.1243 0.1243 0.9922 -59.6377 25.7349)" gradientUnits="userSpaceOnUse">
			<stop  offset="0" style="stop-color:#66A6B5"/>
			<stop  offset="0.4215" style="stop-color:#67A8B7"/>
			<stop  offset="0.701" style="stop-color:#6BAEBD"/>
			<stop  offset="0.9385" style="stop-color:#71B9C9"/>
			<stop  offset="1" style="stop-color:#74BECD"/>
		</radialGradient>
		<path fill="url(#SVGID_9_)" d="M407.438,571.367c-12.963-19.281-26.282-38.35-38.887-57.791
			c-19.552-30.133-38.853-60.193-57.796-90.45c-6.301-9.848-12.889-19.373-18.799-29.256
			c-27.569-46.495-72.187-111.755-61.301-170.299C219.77,93.374,325.758,43.513,325.758,43.513
			C209.492,34.866,85.277,123.99,97.701,239.809c9.381,87.997,61.089,161.009,107.495,233.41
			c16.329,25.764,33.121,51.527,49.381,77.221c4.904,7.322,9.736,14.717,14.427,22.146c16.76,25.924,31.12,53.389,44.975,81.229
			c15.827,32.029,43.83,79.277,40.966,119.203c0.214-0.932,0.679-1.754,0.821-2.684c10.707,127.953-102.873,183.352-106.811,185.213
			c2.684,0.215,5.333,0.857,8.056,1.002c91.346,6.947,201.774-56.719,220.107-151.088
			C494.341,716.461,455.99,643.16,407.438,571.367z"/>
		
			<radialGradient id="SVGID_10_" cx="244.3115" cy="847.6143" r="3.298" gradientTransform="matrix(0.9922 -0.1243 0.1243 0.9922 -59.6377 25.7349)" gradientUnits="userSpaceOnUse">
			<stop  offset="0" style="stop-color:#66A6B5"/>
			<stop  offset="0.4215" style="stop-color:#67A8B7"/>
			<stop  offset="0.701" style="stop-color:#6BAEBD"/>
			<stop  offset="0.9385" style="stop-color:#71B9C9"/>
			<stop  offset="1" style="stop-color:#74BECD"/>
		</radialGradient>
		<path fill="url(#SVGID_10_)" d="M292.675,835.34c-3.046,0.789-6.124,1.561-9.098,2.061
			C286.622,836.861,289.664,836.234,292.675,835.34z"/>
	</g>
</g>
</svg>
