<?xml version="1.0" encoding="utf-8"?>
<!-- Generator: Adobe Illustrator 16.2.0, SVG Export Plug-In . SVG Version: 6.00 Build 0)  -->
<!DOCTYPE svg PUBLIC "-//W3C//DTD SVG 1.1//EN" "http://www.w3.org/Graphics/SVG/1.1/DTD/svg11.dtd">
<svg version="1.1" id="Layer_1" xmlns="http://www.w3.org/2000/svg" xmlns:xlink="http://www.w3.org/1999/xlink" x="0px" y="0px"
	 width="1469.047px" height="630.952px" viewBox="0 0 1469.047 630.952" enable-background="new 0 0 1469.047 630.952"
	 xml:space="preserve">
<g>
	<path fill="#74ADBA" d="M324.841,282.067c-0.567-48.039-38.644-88.784-87.238-91.244c-50.523-2.527-103.497,37.434-96.833,87.587
		c5.01,38.067,28.224,69.164,49.086,100.131c7.458,10.997,14.95,21.973,22.365,32.926c2.179,3.18,4.345,6.295,6.49,9.432
		c7.513,11.191,14.025,22.932,20.308,34.799c10.485,19.881,32.371,53.506,8.134,72.125c-6.479,4.922-18.86,8.93-27.003,8.514
		c-22.441-1.109-39.929-20.49-38.796-42.92l0.207-4.334l1.165-22.932l0.163-3.529c0.632-12.238-8.874-22.756-21.156-23.389
		l-6.74-0.35c-12.26-0.586-22.768,8.887-23.378,21.17l-0.195,3.506l-1.155,22.93l-0.229,4.336
		c-2.537,50.543,37.021,94.271,87.533,96.842c39.656,2.025,86.923-26.807,93.871-67.879c6.542-38.852-10.955-70.188-32.721-100.871
		c-5.814-8.209-11.813-16.355-17.509-24.676c-8.787-12.825-17.443-25.716-26.045-38.609c-2.81-4.16-5.814-8.209-8.493-12.457
		c-13.992-22.387-37.739-54.726-25.785-82.556c5.38-12.544,20.884-19.098,34.114-18.446c22.441,1.112,39.95,20.471,38.819,42.924
		l-1.177,23.691l-0.195,3.572c-0.229,4.225,1.709,7.885,4.649,10.3c3.811,5.38,9.668,9.169,16.703,9.495l6.784,0.37
		c6.979,0.328,13.164-2.853,17.509-7.773c3.222-2.134,5.487-5.554,5.695-9.821l0.174-3.572l1.198-23.648l0.129-2.811
		C325.341,283.92,324.918,283.026,324.841,282.067z"/>
	<path fill="#74ADBA" d="M792.265,281.698V493.59c0,51.393-41.726,93.117-92.292,93.117c-51.351,0-93.119-41.725-93.119-93.117
		V281.698c0-50.567,41.768-92.335,93.119-92.335C750.54,189.363,792.265,231.131,792.265,281.698z M740.914,281.698
		c0-22.473-18.467-40.941-40.94-40.941c-23.258,0-41.725,18.468-41.725,40.941V493.59c0,23.258,18.467,41.723,41.725,41.723
		c22.474,0,40.94-18.465,40.94-41.723V281.698z"/>
	<path fill="#74ADBA" d="M1342.178,281.698V493.59c0,51.393-41.724,93.117-92.335,93.117c-51.349,0-93.075-41.725-93.075-93.117
		V281.698c0-50.567,41.727-92.335,93.075-92.335C1300.455,189.363,1342.178,231.131,1342.178,281.698z M1290.785,281.698
		c0-22.473-18.467-40.941-40.941-40.941c-23.258,0-41.723,18.468-41.723,40.941V493.59c0,23.258,18.465,41.723,41.723,41.723
		c22.475,0,40.941-18.465,40.941-41.723V281.698z"/>
	<path fill="#74ADBA" d="M551.67,276.081c-3.005-47.953-43.074-86.718-91.724-86.718c-51.416,0-92.356,41.768-92.356,92.335v212.675
		c0,50.609,40.94,92.334,92.356,92.334c50.566,0,92.292-41.725,92.292-92.334v-4.313v-25.348v-1.133
		c0-12.281-10.018-22.301-22.299-22.301h-6.752c-12.283,0-22.299,10.02-22.299,22.301v1.133v25.348v4.313
		c0,22.475-18.467,40.939-40.941,40.939c-22.496,0-40.962-18.465-40.962-40.939V281.698c0-22.473,18.467-40.941,40.962-40.941
		c22.474,0,40.941,18.468,40.941,40.941v23.694v3.571c0,4.269,2.046,7.796,5.139,10.104c4.094,5.098,10.105,8.625,17.161,8.625
		h6.752c7.011,0,13.065-3.486,17.159-8.625c3.05-2.308,5.141-5.835,5.141-10.104v-3.571v-23.694v-2.787
		C552.238,277.908,551.802,277.039,551.67,276.081z"/>
	<path fill="#74ADBA" d="M1071.839,189.363h-6.751c-12.283,0-22.302,9.452-22.302,20.993v1.83c0,0.043-0.042,0.043-0.042,0.086
		v349.785c0,0.041,0.042,0.041,0.042,0.086v2.963c0,11.889,10.019,21.602,22.302,21.602h6.751c12.28,0,22.299-9.713,22.299-21.602
		v-3.049v-22.605V235.27v-22.998v-1.917C1094.138,198.814,1084.12,189.363,1071.839,189.363z"/>
	<path fill="#74ADBA" d="M980.591,538.145c-1.61-0.697-3.352-1.131-5.269-1.131h-0.349h-26.48h-42.205V215.017
		c0-0.043-0.042-0.086-0.042-0.086v-1.917c0-11.846-10.019-21.56-22.302-21.56h-6.75c-12.283,0-22.299,9.713-22.299,21.56v2.003
		v23.606v323.215c0,13.24,11.235,24.869,25.696,24.869h67.901h26.48h0.349c1.655,0,3.224-0.393,4.658-0.959
		c9.802-2.307,17.293-10.451,17.293-20.643v-6.49C997.274,548.643,990.086,540.584,980.591,538.145z"/>
</g>
</svg>
